<svg width="75" height="75" viewBox="0 0 75 75" fill="none" xmlns="http://www.w3.org/2000/svg">
<circle cx="37.5" cy="37.5" r="37.5" fill="#ACACAC"/>
<path d="M37.5 21.3938C39.7475 21.3938 41.5688 23.5675 41.5688 26.25C41.5688 28.9325 39.7475 31.1063 37.5 31.1063C35.2525 31.1063 33.4312 28.9325 33.4312 26.25C33.4312 23.5675 35.2525 21.3938 37.5 21.3938ZM37.5 42.2062C43.2544 42.2062 49.3188 45.5825 49.3188 47.0625V49.6063H25.6813V47.0625C25.6813 45.5825 31.7456 42.2062 37.5 42.2062ZM37.5 17C33.2181 17 29.75 21.1394 29.75 26.25C29.75 31.3606 33.2181 35.5 37.5 35.5C41.7819 35.5 45.25 31.3606 45.25 26.25C45.25 21.1394 41.7819 17 37.5 17ZM37.5 37.8125C32.3269 37.8125 22 40.9112 22 47.0625V54H53V47.0625C53 40.9112 42.6731 37.8125 37.5 37.8125Z" fill="white"/>
</svg>
