<svg width="170" height="118" viewBox="0 0 170 118" fill="none" xmlns="http://www.w3.org/2000/svg">
<path d="M25.7349 114.918C17.2401 105.519 12.3566 97.1793 10.5095 85.3695C10.4929 85.2638 16.3032 85.323 16.3002 85.2158C16.2122 82.0767 16.4433 70.7911 16.3193 70.4304C16.3193 70.4304 10.1675 70.42 10.1704 70.3787C10.2458 69.3001 10.3514 68.9083 10.4876 67.9954C12.3875 55.2643 18.2397 43.8397 27.7544 34.2873C36.1179 25.8908 45.9476 19.8877 57.9075 15.8725C65.5883 13.2939 72.7377 11.9566 81.5385 11.4523L83.8897 11.3176L85.7511 9.99879C92.7398 5.04736 100.878 1.86903 109.655 0.662989C113.405 0.147753 120.251 0.197909 123.958 0.767772C128.697 1.49619 133.022 2.66818 136.787 4.24417C138.163 4.82017 138.429 5.00615 138.517 5.45348C138.726 6.50755 139.087 10.0225 138.996 10.1136C138.944 10.1649 138.207 9.79359 137.357 9.28839C130.813 5.39781 122.383 3.44729 114.961 4.10659C111.493 4.41466 109.102 4.94879 104.855 6.36436C96.0264 9.30658 89.9551 12.7056 84.0501 18.0119C82.2072 19.6679 82.0777 19.7466 80.9702 19.8838C80.3344 19.9625 78.5765 20.2816 77.0637 20.5929C75.551 20.9041 74.2852 21.1307 74.251 21.0964C74.1465 20.992 76.5074 18.2166 77.9828 16.7095C78.7476 15.9282 79.2649 15.289 79.1323 15.289C78.4678 15.289 72.9373 16.5732 70.1743 17.369C51.2089 22.8321 35.2842 34.354 25.7275 49.5507C21.6461 56.0408 18.798 63.0447 17.5199 70.3872C17.5143 70.4192 16.4257 70.408 16.4228 70.4249C16.3698 70.7416 16.07 84.0848 16.3533 85.2061C16.3639 85.2483 16.4957 85.2261 16.4996 85.263C16.9439 89.4055 17.3921 92.4091 18.4687 96.4045C19.1879 99.0736 19.4557 101.885 20.7989 105.012C20.8374 105.102 20.8724 106.256 20.8758 106.647C20.8763 106.702 20.8766 106.748 20.877 106.783C20.8773 106.811 20.8937 107.83 20.8945 107.841C20.8953 107.851 22.7049 107.847 22.7286 107.859C22.7523 107.872 22.8827 108.15 22.913 108.216C24.2507 111.123 25.3254 112.983 26.7439 115.218C27.495 116.401 28.0731 117.37 28.0286 117.37C27.9841 117.37 26.8794 116.184 25.735 114.918L25.7349 114.918ZM23.9871 70.4067C25.363 62.1055 28.4209 56.6151 33.6995 49.0878C36.9143 44.5033 41.0783 40.4827 46.956 36.2876C54.8525 30.6516 64.1038 26.4634 74.0785 24.0088C78.4824 22.9251 79.4679 22.7575 79.1678 23.1434C79.0493 23.2957 78.5066 23.9946 77.9618 24.6965C76.9973 25.9391 76.9257 25.9873 75.2382 26.533C64.4515 30.0208 53.2181 36.6163 44.7028 44.4613C39.1549 49.5725 33.7767 55.9928 30.3539 62.3134C28.0499 66.5681 28.6025 65.4127 26.4899 70.4245C26.4191 70.405 23.9871 70.4067 23.9871 70.4067V70.4067ZM28.8932 70.4478C28.8932 69.9012 32.2196 64.1103 35.1043 59.7663C43.8903 46.5359 56.7998 36.4044 72.7704 30.2055C73.875 29.7768 74.7787 29.4493 74.7787 29.4779C74.7787 29.5064 74.5252 29.9933 74.2154 30.5599L73.6521 31.59L73.989 32.8934C74.4912 34.8365 75.6268 38.2135 75.778 38.2135C75.8507 38.2135 76.4051 37.601 77.0099 36.8524C77.8014 35.8728 78.1096 35.3258 78.1096 34.9006C78.1096 34.4459 78.4243 33.9586 79.4767 32.7838C80.2286 31.9445 80.8458 31.2071 80.8483 31.1451C80.8506 31.0831 80.4516 30.5159 79.9615 29.8846C78.9784 28.6187 78.8412 27.7804 79.5992 27.6722C80.0069 27.614 80.5978 28.1596 81.5749 29.4963L82.0032 30.0822L82.8812 29.2246L83.7593 28.367L82.7816 27.123C81.6742 25.7139 81.5706 25.0296 82.4492 24.9278C82.8824 24.8777 83.1188 25.0637 83.8812 26.0545C84.3834 26.7071 84.8594 27.2412 84.939 27.2412C85.0186 27.2412 85.4204 26.8964 85.8318 26.4751C86.6568 25.6302 86.6666 25.6981 85.5071 24.2233C84.6273 23.104 84.5903 22.473 85.399 22.3796C85.8446 22.3282 86.0741 22.5059 86.8464 23.5004L87.7643 24.6824L88.2762 24.3018C88.5577 24.0925 89.0026 23.7519 89.2648 23.545L89.7415 23.1687L88.9506 22.2169C87.8459 20.8877 87.6244 20.4292 87.9168 20.077C88.3957 19.4999 88.9666 19.76 89.8704 20.9671C90.3527 21.6114 90.8009 22.1404 90.8662 22.1427C90.9315 22.145 91.3934 21.835 91.8925 21.4539L92.8 20.7609L91.8082 19.4988C90.8057 18.2232 90.6753 17.6268 91.3427 17.3707C91.8181 17.1883 92.1137 17.4089 93.0178 18.6209C93.4933 19.2583 93.9546 19.7834 94.043 19.7878C94.2276 19.7968 95.9397 18.6461 95.9397 18.5129C95.9397 18.4644 95.5356 17.9043 95.0418 17.2684C94.0205 15.9533 93.9286 15.2315 94.77 15.1333C95.1792 15.0856 95.4346 15.2992 96.2344 16.3579C96.7672 17.0633 97.2542 17.6404 97.3168 17.6404C97.4715 17.6404 99.2706 16.4933 99.2706 16.3947C99.2706 16.3514 98.8738 15.805 98.3889 15.1805C97.4594 13.9835 97.4378 13.9344 97.6261 13.4438C97.8909 12.7538 98.6476 13.1043 99.683 14.3964L100.695 15.6589L101.662 15.1065C102.194 14.8026 102.627 14.477 102.623 14.3828C102.62 14.2886 102.255 13.7476 101.813 13.1805C100.882 11.9885 100.824 11.3083 101.645 11.213C102.072 11.1634 102.325 11.3668 103.167 12.438L104.176 13.7224L105.766 12.9229C107.015 12.2951 107.53 12.1371 108.163 12.1873C108.725 12.2319 109.4 12.0733 110.389 11.6639C111.17 11.3409 111.809 11.0189 111.81 10.9485C111.81 10.8121 109.33 9.19609 107.941 8.42789C107.483 8.17462 107.108 7.90764 107.108 7.83459C107.108 7.67754 109.103 7.25582 109.846 7.25582C110.163 7.25582 111.147 7.78831 112.392 8.63287L114.422 10.0099L116.092 9.45335C117.011 9.14723 117.787 8.81411 117.819 8.71308C117.85 8.61205 117.385 8.17766 116.785 7.74777C116.185 7.31787 115.653 6.89906 115.602 6.81708C115.552 6.73509 116.293 6.66801 117.25 6.66801C118.947 6.66801 119.009 6.68443 119.772 7.33765L120.554 8.00728L121.913 7.61942C123.123 7.27434 123.424 7.25732 124.644 7.46517C126.918 7.85251 126.901 7.91641 124.362 8.5266C123.062 8.83887 121.999 9.14579 121.999 9.20865C121.999 9.27151 122.668 9.98201 123.487 10.7875C126.489 13.7429 130.451 19.0255 132.19 22.391C132.566 23.1181 132.928 23.7132 132.996 23.7136C133.342 23.7157 133.816 19.1859 133.903 15.0442C133.955 12.5926 134.057 10.5867 134.131 10.5867C134.204 10.5867 135.362 11.2278 136.704 12.0114L139.143 13.436L139.102 15.979C138.907 27.8268 135.224 38.4487 128.334 47.0306C124.464 51.8514 117.445 57.6267 111.419 60.9501C106.221 63.8162 99.7603 65.9701 93.3926 66.9596C90.2137 67.4536 81.5013 67.452 78.4036 66.9566C73.8096 66.2222 69.0181 64.9039 65.2759 63.3446L63.9044 62.7731L63.6311 61.0246C63.4489 59.8587 63.351 57.3954 63.3372 53.6305L63.3166 47.9847L62.6308 48.11C61.2651 48.3596 55.6033 50.3173 53.2274 51.4276C41.3749 56.9666 35.7489 61.4869 29.9583 70.4411C29.901 70.4465 28.9469 70.4493 28.8932 70.448V70.4478ZM80.8142 59.539C79.3757 58.1014 77.5989 56.1758 76.8657 55.2598C75.4992 53.5524 72.8728 49.7409 72.039 48.2551C71.7819 47.7971 71.5163 47.4224 71.4487 47.4224C71.3438 47.4224 69.2478 51.038 68.5012 52.5069C68.3206 52.8622 68.2916 53.7152 68.3896 55.79C68.4624 57.3317 68.5708 58.72 68.6303 58.8752C68.83 59.3957 74.2039 60.9931 77.8801 61.6249C79.5303 61.9084 83.2069 62.2883 83.3659 62.1917C83.401 62.1703 82.2528 60.9766 80.8142 59.539V59.539ZM91.5005 61.9464L92.2537 61.8232L90.7346 60.7626C84.7737 56.6007 79.4331 50.5574 75.9586 44.0425C75.3982 42.9918 74.9145 42.1321 74.8837 42.1321C74.8529 42.1321 74.369 42.7957 73.8083 43.6067L72.789 45.0812L73.5073 46.3988C76.2015 51.3404 80.4341 56.5105 84.9673 60.3974L87.2206 62.3293L88.984 62.1995C89.9539 62.1281 91.0863 62.0142 91.5005 61.9464V61.9464ZM98.3339 60.6592C111.293 57.1077 121.963 48.6225 128.361 36.7809L129.293 35.0545L128.857 33.744C126.79 27.5392 123.29 21.7126 118.702 16.8419C116.743 14.761 113.772 12.1557 113.354 12.1512C113.205 12.1497 112.307 12.4725 111.358 12.8686C110.042 13.4178 109.564 13.721 109.345 14.1452C109.152 14.5173 108.589 14.9361 107.642 15.4101C106.863 15.7999 106.194 16.1485 106.154 16.1847C106.114 16.221 106.363 16.6061 106.707 17.0404C107.466 17.9999 107.459 18.6887 106.687 18.778C106.265 18.8269 106.05 18.6724 105.527 17.9453C105.175 17.4543 104.81 17.0525 104.717 17.0525C104.624 17.0525 104.105 17.2768 103.564 17.5509L102.581 18.0493L103.31 19.0434C104.109 20.1309 104.067 20.6329 103.169 20.7262C102.812 20.7634 102.541 20.5631 102.04 19.8935C101.677 19.4086 101.3 19.0119 101.203 19.0119C101.06 19.0119 99.5807 19.8614 99.2959 20.1068C99.256 20.1412 99.4985 20.5435 99.8347 21.0008C100.545 21.967 100.604 22.4406 100.049 22.7375C99.718 22.9146 99.5614 22.8586 99.1098 22.4015C98.8117 22.0998 98.4246 21.6453 98.2496 21.3915L97.9313 20.9301L96.9845 21.5702C96.4637 21.9223 96.0069 22.2341 95.9694 22.2631C95.9319 22.2921 96.2184 22.7314 96.6062 23.2392C97.3664 24.2348 97.4399 24.4869 97.0761 24.8507C96.6445 25.2823 96.183 25.0937 95.3998 24.1658L94.6232 23.2458L93.7629 23.9097C93.2898 24.2749 92.872 24.5946 92.8344 24.6204C92.797 24.6461 93.0835 25.0826 93.4712 25.5904C94.2173 26.5676 94.2446 26.639 94.0573 27.1271C93.8285 27.7234 93.0713 27.4725 92.2838 26.5395L91.5262 25.642L90.6068 26.3876L89.6873 27.1332L90.1691 27.726C91.0251 28.7792 91.2907 29.3898 91.0296 29.7044C90.5837 30.2416 89.9616 30.0253 89.2989 29.1025C88.9507 28.6176 88.6084 28.2208 88.5384 28.2208C88.4683 28.2208 88.038 28.5869 87.5821 29.0343L86.7532 29.8478L87.4277 30.6709C88.195 31.6073 88.2848 32.2239 87.6995 32.5372C87.3527 32.7228 87.203 32.6504 86.6218 32.0159C86.2507 31.6107 85.947 31.2082 85.947 31.1215C85.947 30.7457 85.3825 31.0215 84.6809 31.7399L83.9232 32.5159L84.6412 33.4375C85.4137 34.4291 85.5239 34.8938 85.0747 35.2666C84.7984 35.4959 83.993 35.3836 83.9824 35.1143C83.9793 35.0407 83.7315 34.6844 83.4312 34.3225L82.8854 33.6645L81.6288 34.973C80.8451 35.7893 80.1599 36.3241 79.8077 36.3945C79.4133 36.4734 78.8803 36.9468 78.0395 37.965C77.3776 38.7667 76.7544 39.596 76.6546 39.8079C76.2633 40.6386 80.0648 47.0954 83.0618 50.6905C86.0691 54.2979 89.5479 57.3866 93.4801 59.9406C94.6599 60.7068 95.6808 61.3337 95.749 61.3337C95.8171 61.3337 96.9803 61.0302 98.3339 60.6592H98.3339ZM69.676 47.3384L70.6736 45.6869L70.1382 44.5953C69.8437 43.9949 69.5459 43.5037 69.4764 43.5037C69.4068 43.5037 69.2024 44.4515 69.0221 45.61C68.8417 46.7684 68.6485 48.0028 68.5926 48.3531C68.5368 48.7033 68.5333 48.9899 68.5848 48.9899C68.6364 48.9899 69.1274 48.2467 69.676 47.3384H69.676ZM74.0752 40.5935C74.1394 40.4896 73.8976 39.6251 73.538 38.6723C73.1783 37.7195 72.7693 36.5188 72.6289 36.0041C72.4886 35.4895 72.3088 35.0282 72.2293 34.9791C72.087 34.8912 71.1121 37.3341 70.6495 38.9381C70.3919 39.8313 70.391 39.8279 71.4896 42.3074L72.0447 43.5604L73.0016 42.1713C73.5279 41.4073 74.011 40.6973 74.0752 40.5935ZM131.47 29.501L132.21 27.2544L131.112 25.0723C128.461 19.8027 125.224 15.4926 120.462 10.8915L119.459 9.92282L117.688 10.4887C116.715 10.7999 115.941 11.1096 115.97 11.1768C115.999 11.244 116.739 11.9272 117.614 12.695C122.59 17.0598 127.603 24.2293 129.941 30.3271C130.241 31.1084 130.541 31.7476 130.608 31.7476C130.676 31.7476 131.064 30.7366 131.47 29.501Z" fill="white"/>
<path d="M0 72.0738V79.4641H1.28562V95.3358V97.3694V99.3533H0V106.744H7.68308V99.3533H6.39746V93.0543H9.85637V85.664H6.39746V79.3649H9.85637V83.0848H14.9682V71.9746L0 72.0738Z" fill="white"/>
<path d="M34.0782 83.1841V72.0739H17.457V83.1841H21.9261V79.4641H23.2117V99.403H21.9261V106.793H29.6091V99.403H28.3235V79.4641H29.6091V83.1841H34.0782Z" fill="white"/>
<path d="M60.5572 79.4641V72.0739H53.8536L48.5581 92.6079L43.2626 72.0739H36.5591V79.4641H37.8447V99.403H36.5591V106.793H44.2422V99.403H42.9565V90.7231L47.1195 106.793H50.0274L54.1904 90.7231V99.403H52.9047V106.793H60.5878V99.403H59.3022V79.4641H60.5572Z" fill="white"/>
<path d="M78.3197 99.403L75.8097 79.4641H77.0953V72.0739H65.4941V79.4641H66.7798L64.2697 99.403H62.9841V106.793H70.6672V99.403H69.3816L69.7183 96.2782H72.8711L73.2078 99.403H71.9222V106.793H79.6053V99.403H78.3197ZM70.2081 91.5663L71.2794 81.5473L72.3507 91.5663H70.2081Z" fill="white"/>
<path d="M98.646 79.4641V72.0739H92.2486V87.9456L88.1469 72.0739H82.0249V79.4641H83.3105V99.403H82.0249V106.793H88.4224V91.9135L92.2486 106.793H98.646V99.403H97.3604V79.4641H98.646Z" fill="white"/>
<path d="M116.462 99.403L113.952 79.4641H115.238V72.0739H103.637V79.4641H104.923L102.413 99.403H101.127V106.793H108.81V99.403H107.524L107.861 96.2782H111.014L111.351 99.403H110.065V106.793H117.748V99.403H116.462ZM108.351 91.5663L109.422 81.5473L110.494 91.5663H108.351Z" fill="white"/>
<path d="M133.492 83.1841V75.893L131.135 72.0739H122.135L119.809 75.8434V102.974L122.135 106.744H131.135L133.492 102.925V95.6334V93.1039V85.7136H127.094V93.1039H128.38V98.3614L127.584 99.403H125.686L124.89 98.3614V80.5057L125.686 79.4641H127.584L128.38 80.5057V83.1841H133.492Z" fill="white"/>
<path d="M150.919 83.1841V72.0739H135.951V79.4641H137.237V99.403H135.951V106.793H150.919V95.683H145.807V99.403H142.348V93.1039H145.807V85.7136H142.348V79.4145H145.807V83.1345L150.919 83.1841Z" fill="white"/>
<path d="M168.684 91.3183L167.521 89.4336L168.684 87.5488V75.893L166.327 72.0739H153.348V79.4641H154.634V99.403H153.348V106.793H159.746V93.1039H162.807L163.603 94.1455V106.793H170V99.403H168.715L168.684 91.3183ZM163.603 84.672L162.807 85.7136H159.746V79.4145H162.807L163.603 80.4561V84.672Z" fill="white"/>
</svg>
